<?xml version="1.0" standalone="no"?>
<!DOCTYPE svg PUBLIC "-//W3C//DTD SVG 20010904//EN"
 "http://www.w3.org/TR/2001/REC-SVG-20010904/DTD/svg10.dtd">
<svg version="1.0" xmlns="http://www.w3.org/2000/svg"
 width="226.000000pt" height="226.000000pt" viewBox="0 0 226.000000 226.000000"
 preserveAspectRatio="xMidYMid meet">
<metadata>
Created by potrace 1.11, written by Peter Selinger 2001-2013
</metadata>
<g transform="translate(0.000000,226.000000) scale(0.100000,-0.100000)"
fill="#000000" stroke="none">
<path d="M962 1770 c-116 -31 -206 -83 -297 -175 -131 -131 -195 -283 -195
-465 0 -182 63 -333 197 -469 46 -46 83 -86 83 -88 0 -1 -12 -3 -26 -3 -28 0
-91 -26 -100 -42 -14 -23 34 -50 102 -58 100 -13 632 -12 736 1 100 13 142 35
119 62 -7 9 -27 21 -46 27 l-33 11 87 87 c60 61 98 109 124 159 103 197 102
429 0 626 -51 98 -172 219 -270 270 -146 76 -326 97 -481 57z m205 -1152 c-3
-8 -6 -5 -6 6 -1 11 2 17 5 13 3 -3 4 -12 1 -19z"/>
</g>
</svg>
