<?xml version="1.0" encoding="UTF-8"?>
<svg fill="#EB5757" width="100pt" height="100pt" version="1.1" viewBox="0 0 100 100" xmlns="http://www.w3.org/2000/svg">
 <g>
  <path d="m50 100c-27.57 0-50-22.43-50-50s22.43-50 50-50 50 22.43 50 50-22.43 50-50 50zm0-94.117c-24.332 0-44.117 19.785-44.117 44.117s19.785 44.117 44.117 44.117 44.117-19.785 44.117-44.117-19.785-44.117-44.117-44.117z"/>
  <path d="m66.48 62.113c1.2188 1.2188 1.2188 3.1992-0.007813 4.418-1.2188 1.2188-3.1992 1.2109-4.418-0.007812l-28.535-28.637c-1.2188-1.2227-1.2188-3.1992 0.003907-4.4258 1.2266-1.2109 3.2031-1.2109 4.4219 0.015624z"/>
  <path d="m33.52 62.113c-1.2188 1.2188-1.2188 3.1992 0.007813 4.418 1.2188 1.2188 3.1992 1.2109 4.418-0.007812l28.531-28.645c1.2188-1.2266 1.2188-3.1992-0.007812-4.4258-1.2266-1.2031-3.1953-1.2031-4.4141 0.023437z"/>
 </g>
</svg>
