<svg width="80" height="80" viewBox="0 0 80 80" fill="none" xmlns="http://www.w3.org/2000/svg">
<path fill-rule="evenodd" clip-rule="evenodd" d="M61.8748 14.9558H60.6248C58.5592 14.9558 56.881 13.287 56.8748 11.2214V8.73392C56.881 6.66824 58.5592 4.99639 60.6248 4.99952H61.8748C63.9404 4.9964 65.6185 6.66832 65.6248 8.73392V11.2214C65.6185 13.2871 63.9404 14.9558 61.8748 14.9558ZM60.6248 7.48712C59.9373 7.48712 59.3748 8.04337 59.3748 8.734V11.2215C59.3748 11.9121 59.9373 12.4684 60.6248 12.4653H61.8748C62.5623 12.4684 63.1248 11.9121 63.1248 11.2215V8.734C63.1248 8.04336 62.5623 7.48712 61.8748 7.48712H60.6248ZM13.1252 4.99988C15.1908 4.99676 16.869 6.66868 16.8752 8.73428V11.2218C16.869 13.2875 15.1908 14.9593 13.1252 14.9562H11.8752C9.80964 14.9593 8.13149 13.2874 8.12524 11.2218V8.73428C8.13148 6.6686 9.80964 4.99676 11.8752 4.99988H13.1252ZM13.1252 12.4656C13.8127 12.4687 14.3752 11.9124 14.3752 11.2218L14.3753 8.73431C14.3753 8.40303 14.2409 8.08427 14.0065 7.85303C13.7721 7.61865 13.4565 7.4874 13.1252 7.4874H11.8752C11.1877 7.4874 10.6252 8.04366 10.6252 8.73428V11.2218C10.6252 11.9124 11.1877 12.4687 11.8752 12.4656H13.1252ZM65.6251 72.5121C66.3126 72.509 66.872 73.0653 66.8751 73.7559C66.872 74.4434 66.3126 74.9997 65.6251 74.9997H14.3755C14.0442 74.9997 13.7255 74.8716 13.4911 74.6372C13.2567 74.4028 13.1255 74.0872 13.1255 73.7559C13.1255 73.4246 13.2567 73.1059 13.4911 72.8746C13.7255 72.6403 14.0443 72.509 14.3755 72.5121H65.6251ZM21.8752 6.86548C21.8752 6.17485 21.3159 5.61548 20.6252 5.61548C19.9346 5.61548 19.3752 6.17485 19.3752 6.86548V13.0873C19.3752 13.7779 19.9346 14.3373 20.6252 14.3373C21.3159 14.3373 21.8752 13.7779 21.8752 13.0873V6.86548ZM29.3748 4.99988C31.4404 4.99676 33.1185 6.66868 33.1248 8.73428V11.2218C33.1185 13.2875 31.4404 14.9593 29.3748 14.9562H28.1248C26.0592 14.9593 24.381 13.2874 24.3748 11.2218V8.73428C24.381 6.6686 26.0592 4.99676 28.1248 4.99988H29.3748ZM29.3748 12.4656C30.0623 12.4687 30.6248 11.9124 30.6248 11.2218L30.6248 8.73431C30.6248 8.40303 30.4904 8.08427 30.256 7.85303C30.0216 7.61865 29.706 7.4874 29.3748 7.4874H28.1248C27.4373 7.4874 26.8748 8.04366 26.8748 8.73428V11.2218C26.8748 11.9124 27.4373 12.4687 28.1248 12.4656H29.3748ZM38.1248 6.86548C38.1248 6.17485 37.5654 5.61548 36.8748 5.61548C36.1841 5.61548 35.6248 6.17485 35.6248 6.86548V13.0873C35.6248 13.7779 36.1841 14.3373 36.8748 14.3373C37.5654 14.3373 38.1248 13.7779 38.1248 13.0873V6.86548ZM45.6252 4.99988C47.6908 4.99676 49.369 6.66868 49.3752 8.73428V11.2218C49.369 13.2875 47.6908 14.9593 45.6252 14.9562H44.3752C42.3096 14.9593 40.6315 13.2874 40.6252 11.2218V8.73428C40.6315 6.6686 42.3096 4.99676 44.3752 4.99988H45.6252ZM45.6252 12.4656C46.3127 12.4687 46.8752 11.9124 46.8752 11.2218V8.73428C46.8752 8.04365 46.3127 7.4874 45.6252 7.4874H44.3752C43.6877 7.4874 43.1252 8.04366 43.1252 8.73428V11.2218C43.1252 11.9124 43.6877 12.4687 44.3752 12.4656H45.6252ZM53.1248 14.3343C53.8123 14.3343 54.3716 13.7781 54.3748 13.0874V6.8656C54.3748 6.17498 53.8154 5.6156 53.1248 5.6156C52.4341 5.6156 51.8748 6.17498 51.8748 6.8656V13.0874C51.8779 13.7781 52.4373 14.3343 53.1248 14.3343ZM69.3752 14.3343C70.0628 14.3343 70.6221 13.7781 70.6252 13.0874V6.8656C70.6252 6.17498 70.0659 5.6156 69.3752 5.6156C68.6846 5.6156 68.1252 6.17498 68.1252 6.8656V13.0874C68.1284 13.7781 68.6877 14.3343 69.3752 14.3343ZM13.1252 17.4439C15.1908 17.4407 16.869 19.1127 16.8752 21.1782V23.6658C16.869 25.7314 15.1908 27.4033 13.1252 27.4002H11.8752C9.80964 27.4033 8.13149 25.7314 8.12524 23.6658V21.1782C8.13148 19.1126 9.80964 17.4407 11.8752 17.4439H13.1252ZM14.0065 24.5471C14.2409 24.3158 14.3752 23.997 14.3752 23.6658L14.3752 21.1783C14.3752 20.4876 13.8127 19.9314 13.1252 19.9345H11.8752C11.1877 19.9314 10.6252 20.4877 10.6252 21.1783V23.6658C10.6252 24.3564 11.1877 24.9127 11.8752 24.9127H13.1252C13.4565 24.9127 13.7721 24.7814 14.0065 24.5471ZM21.8752 19.3126C21.8752 18.622 21.3159 18.0626 20.6252 18.0626C19.9346 18.0626 19.3752 18.622 19.3752 19.3126V25.5345C19.3752 26.2251 19.9346 26.7845 20.6252 26.7845C21.3159 26.7845 21.8752 26.2251 21.8752 25.5345V19.3126ZM29.3748 17.4439C31.4404 17.4407 33.1185 19.1127 33.1248 21.1782V23.6658C33.1185 25.7314 31.4404 27.4033 29.3748 27.4002H28.1248C26.0592 27.4033 24.381 25.7314 24.3748 23.6658V21.1782C24.381 19.1126 26.0592 17.4407 28.1248 17.4439H29.3748ZM30.256 24.5471C30.4904 24.3158 30.6248 23.997 30.6248 23.6658L30.6247 21.1783C30.6247 20.4876 30.0622 19.9314 29.3747 19.9345H28.1247C27.4372 19.9314 26.8747 20.4877 26.8747 21.1783V23.6658C26.8747 24.3564 27.4372 24.9127 28.1247 24.9127H29.3747C29.706 24.9127 30.0216 24.7814 30.256 24.5471ZM38.1248 19.3126C38.1248 18.622 37.5654 18.0626 36.8748 18.0626C36.1841 18.0626 35.6248 18.622 35.6248 19.3126V25.5345C35.6248 26.2251 36.1841 26.7845 36.8748 26.7845C37.5654 26.7845 38.1248 26.2251 38.1248 25.5345V19.3126ZM45.6252 17.4439C47.6908 17.4407 49.369 19.1127 49.3752 21.1782V23.6658C49.369 25.7314 47.6908 27.4033 45.6252 27.4002H44.3752C42.3096 27.4033 40.6315 25.7314 40.6252 23.6658V21.1782C40.6315 19.1126 42.3096 17.4407 44.3752 17.4439H45.6252ZM45.6252 24.9127C46.3127 24.9127 46.8752 24.3564 46.8752 23.6658V21.1782C46.8752 20.4876 46.3127 19.9314 45.6252 19.9345H44.3752C43.6877 19.9314 43.1252 20.4876 43.1252 21.1782V23.6658C43.1252 24.3564 43.6877 24.9127 44.3752 24.9127H45.6252ZM51.8752 25.5342C51.8752 26.2248 52.4346 26.7842 53.1252 26.7842C53.8159 26.7842 54.3752 26.2248 54.3752 25.5342V19.3124C54.3752 18.6218 53.8159 18.0624 53.1252 18.0624C52.4346 18.0624 51.8752 18.6218 51.8752 19.3124V25.5342ZM60.6252 27.3998C58.5596 27.4029 56.8815 25.731 56.8752 23.6654V21.1779C56.8815 19.1122 58.5596 17.4404 60.6252 17.4435H61.8752C63.9408 17.4404 65.619 19.1123 65.6253 21.1779V23.6654C65.619 25.7311 63.9408 27.4029 61.8752 27.3998H60.6252ZM60.6252 19.9341C59.9377 19.931 59.3752 20.4873 59.3752 21.1779V23.6654C59.3752 24.356 59.9377 24.9123 60.6252 24.9123H61.8752C62.5628 24.9123 63.1252 24.356 63.1252 23.6654V21.1779C63.1252 20.4873 62.5628 19.931 61.8752 19.9341H60.6252ZM73.1249 21.5215V24.0215C75.6187 24.3277 77.4937 26.4433 77.5 28.9559V62.5559C77.4937 65.309 75.2562 67.5403 72.5 67.534H7.49998C4.74374 67.5403 2.50622 65.3091 2.49998 62.5559V28.9559C2.5031 26.909 3.75622 25.0746 5.66246 24.3277C5.63746 24.1089 5.62496 23.8871 5.62496 23.6652V21.7339C2.32496 22.5777 0.01248 25.5464 0 28.9558V62.5558C0.0125 66.687 3.36872 70.0276 7.5 70.0214H72.5C76.6313 70.0276 79.9875 66.687 80 62.5558V28.9558C79.9875 25.0682 77 21.837 73.125 21.5214L73.1249 21.5215ZM69.3748 26.7842C68.6841 26.7842 68.1248 26.2248 68.1248 25.5342V19.3124C68.1248 18.6218 68.6841 18.0624 69.3748 18.0624C70.0654 18.0624 70.6248 18.6218 70.6248 19.3124V25.5342C70.6248 26.2248 70.0654 26.7842 69.3748 26.7842ZM16.8752 33.6215C16.869 31.5559 15.1908 29.8871 13.1252 29.8871H11.8752C9.80964 29.8871 8.13148 31.5558 8.12524 33.6215V36.1121C8.13149 38.1777 9.80964 39.8465 11.8752 39.8434H13.1252C15.1908 39.8465 16.869 38.1778 16.8752 36.1121V33.6215ZM14.3752 36.109V36.1121C14.3752 36.7996 13.8127 37.3559 13.1252 37.3559H11.8752C11.1877 37.3559 10.6252 36.7996 10.6252 36.1121V33.6215C10.6252 32.934 11.1877 32.3746 11.8752 32.3777H13.1252C13.8127 32.3746 14.3752 32.934 14.3752 33.6215V36.109ZM20.6252 30.5059C21.3159 30.5059 21.8752 31.0652 21.8752 31.7559V37.9777C21.8752 38.6683 21.3159 39.2277 20.6252 39.2277C19.9346 39.2277 19.3752 38.6683 19.3752 37.9777V31.7559C19.3752 31.0652 19.9346 30.5059 20.6252 30.5059ZM33.1248 33.6215C33.1185 31.5559 31.4404 29.8871 29.3748 29.8871H28.1248C26.0592 29.8871 24.381 31.5558 24.3748 33.6215V36.1121C24.381 38.1777 26.0592 39.8465 28.1248 39.8434H29.3748C31.4404 39.8465 33.1185 38.1778 33.1248 36.1121V33.6215ZM30.6248 36.109V36.1121C30.6248 36.7996 30.0623 37.3559 29.3748 37.3559H28.1248C27.4373 37.3559 26.8748 36.7996 26.8748 36.1121V33.6215C26.8748 32.934 27.4373 32.3746 28.1248 32.3777H29.3748C30.0623 32.3746 30.6248 32.934 30.6248 33.6215V36.109ZM36.8748 30.5059C37.5654 30.5059 38.1248 31.0652 38.1248 31.7559V37.9777C38.1248 38.6683 37.5654 39.2277 36.8748 39.2277C36.1841 39.2277 35.6248 38.6683 35.6248 37.9777V31.7559C35.6248 31.0652 36.1841 30.5059 36.8748 30.5059ZM49.3752 33.6215C49.369 31.5559 47.6908 29.8871 45.6252 29.8871H44.3752C42.3096 29.8871 40.6315 31.5558 40.6252 33.6215V36.1121C40.6315 38.1777 42.3096 39.8465 44.3752 39.8434H45.6252C47.6908 39.8465 49.369 38.1778 49.3752 36.1121V33.6215ZM46.8752 36.109V36.1121C46.8752 36.7996 46.3127 37.3559 45.6252 37.3559H44.3752C43.6877 37.3559 43.1252 36.7996 43.1252 36.1121V33.6215C43.1252 32.934 43.6877 32.3746 44.3752 32.3777H45.6252C46.3127 32.3746 46.8752 32.934 46.8752 33.6215V36.109ZM53.1252 39.2283C52.4346 39.2283 51.8752 38.6689 51.8752 37.9783V31.7565C51.8752 31.0658 52.4346 30.5065 53.1252 30.5065C53.8159 30.5065 54.3752 31.0658 54.3752 31.7565V37.9783C54.3752 38.6689 53.8159 39.2283 53.1252 39.2283ZM56.8752 36.1126C56.8815 38.1782 58.5596 39.847 60.6252 39.8439H61.8752C63.9408 39.847 65.619 38.1783 65.6253 36.1126V33.622C65.619 31.5564 63.9408 29.8876 61.8752 29.8876H60.6252C58.5596 29.8876 56.8815 31.5563 56.8752 33.622V36.1126ZM59.3752 33.6251V33.622C59.3752 32.9345 59.9377 32.3751 60.6252 32.3782H61.8752C62.5628 32.3751 63.1252 32.9345 63.1252 33.622V36.1126C63.1252 36.8001 62.5628 37.3564 61.8752 37.3564H60.6252C59.9377 37.3564 59.3752 36.8001 59.3752 36.1126V33.6251ZM69.3748 39.2283C68.6841 39.2283 68.1248 38.6689 68.1248 37.9783V31.7565C68.1248 31.0658 68.6841 30.5065 69.3748 30.5065C70.0654 30.5065 70.6248 31.0658 70.6248 31.7565V37.9783C70.6248 38.6689 70.0654 39.2283 69.3748 39.2283ZM16.8752 46.0655C16.869 43.9999 15.1908 42.3311 13.1252 42.3342H11.8752C9.80964 42.3311 8.13148 43.9998 8.12524 46.0655V48.5561C8.13149 50.6217 9.80964 52.2905 11.8752 52.2874H13.1252C15.1908 52.2906 16.869 50.6218 16.8752 48.5561V46.0655ZM14.3752 48.5561C14.3752 49.2437 13.8127 49.7999 13.1252 49.7999H11.8752C11.1877 49.7999 10.6252 49.2437 10.6252 48.5561V46.0655C10.6252 45.378 11.1877 44.8218 11.8752 44.8218H13.1252C13.4565 44.8218 13.7721 44.953 14.0065 45.1842C14.2409 45.4186 14.3753 45.7342 14.3753 46.0655L14.3752 48.5561ZM20.6252 42.9498C21.3159 42.9498 21.8752 43.5092 21.8752 44.1998V50.4217C21.8752 51.1123 21.3159 51.6717 20.6252 51.6717C19.9346 51.6717 19.3752 51.1123 19.3752 50.4217V44.1998C19.3752 43.5092 19.9346 42.9498 20.6252 42.9498ZM33.1248 46.0655C33.1185 43.9999 31.4404 42.3311 29.3748 42.3342H28.1248C26.0592 42.3311 24.381 43.9998 24.3748 46.0655V48.5561C24.381 50.6217 26.0592 52.2905 28.1248 52.2874H29.3748C31.4404 52.2906 33.1185 50.6218 33.1248 48.5561V46.0655ZM30.6248 48.5561C30.6248 49.2437 30.0623 49.7999 29.3748 49.7999H28.1248C27.4373 49.7999 26.8748 49.2437 26.8748 48.5561V46.0655C26.8748 45.378 27.4373 44.8218 28.1248 44.8218H29.3748C29.706 44.8218 30.0216 44.953 30.256 45.1842C30.4904 45.4186 30.6248 45.7342 30.6248 46.0655L30.6248 48.5561ZM36.8748 42.9498C37.5654 42.9498 38.1248 43.5092 38.1248 44.1998V50.4217C38.1248 51.1123 37.5654 51.6717 36.8748 51.6717C36.1841 51.6717 35.6248 51.1123 35.6248 50.4217V44.1998C35.6248 43.5092 36.1841 42.9498 36.8748 42.9498ZM49.3752 46.0655C49.369 43.9999 47.6908 42.3311 45.6252 42.3342H44.3752C42.3096 42.3311 40.6315 43.9998 40.6252 46.0655V48.5561C40.6315 50.6217 42.3096 52.2905 44.3752 52.2874H45.6252C47.6908 52.2906 49.369 50.6218 49.3752 48.5561V46.0655ZM46.8752 48.5561C46.8752 49.2437 46.3127 49.7999 45.6252 49.7999H44.3752C43.6877 49.7999 43.1252 49.2437 43.1252 48.5561V46.0655C43.1252 45.378 43.6877 44.8218 44.3752 44.8218H45.6252C46.3127 44.8218 46.8752 45.378 46.8752 46.0655V48.5561ZM53.1252 51.6714C52.4346 51.6714 51.8752 51.112 51.8752 50.4214V44.1996C51.8752 43.509 52.4346 42.9496 53.1252 42.9496C53.8159 42.9496 54.3752 43.509 54.3752 44.1996V50.4214C54.3752 51.112 53.8159 51.6714 53.1252 51.6714ZM56.8752 48.5559C56.8815 50.6215 58.5596 52.2903 60.6252 52.2872H61.8752C63.9408 52.2903 65.619 50.6216 65.6253 48.5559V46.0653C65.619 43.9997 63.9408 42.3309 61.8752 42.334H60.6252C58.5596 42.3309 56.8815 43.9996 56.8752 46.0653V48.5559ZM59.3752 46.0684V46.0653C59.3752 45.3778 59.9377 44.8215 60.6252 44.8215H61.8752C62.5628 44.8215 63.1252 45.3778 63.1252 46.0653V48.5559C63.1252 49.2434 62.5628 49.7997 61.8752 49.7997H60.6252C59.9377 49.7997 59.3752 49.2434 59.3752 48.5559V46.0684ZM69.3748 51.6714C68.6841 51.6714 68.1248 51.112 68.1248 50.4214V44.1996C68.1248 43.509 68.6841 42.9496 69.3748 42.9496C70.0654 42.9496 70.6248 43.509 70.6248 44.1996V50.4214C70.6248 51.112 70.0654 51.6714 69.3748 51.6714ZM13.1248 54.7783H11.8748C9.80916 54.7752 8.131 56.447 8.12476 58.5127V61.0002C8.13101 63.0658 9.80916 64.7346 11.8748 64.7346H13.1248C15.1904 64.7346 16.8685 63.0659 16.8748 61.0002V58.5127C16.8685 56.4471 15.1904 54.7752 13.1248 54.7783ZM14.3748 61.0002C14.3748 61.3314 14.2404 61.647 14.006 61.8814C13.7716 62.1158 13.456 62.2439 13.1247 62.2439H11.8747C11.1872 62.2471 10.6247 61.6877 10.6247 61.0002V58.5127C10.6247 57.822 11.1872 57.2658 11.8747 57.2658H13.1247C13.8122 57.2658 14.3747 57.822 14.3747 58.5127L14.3748 61.0002ZM19.3748 56.6437C19.3779 55.9562 19.9373 55.3999 20.6248 55.3999C21.3123 55.3999 21.8748 55.9562 21.8748 56.6437V62.8655C21.8748 63.5561 21.3154 64.1155 20.6248 64.1155C19.9341 64.1155 19.3748 63.5561 19.3748 62.8655V56.6437ZM29.3752 54.7783H28.1252C26.0596 54.7752 24.3815 56.447 24.3752 58.5127V61.0002C24.3815 63.0658 26.0596 64.7346 28.1252 64.7346H29.3752C31.4408 64.7346 33.119 63.0659 33.1252 61.0002V58.5127C33.119 56.4471 31.4408 54.7752 29.3752 54.7783ZM30.6252 61.0002C30.6252 61.3314 30.4909 61.647 30.2565 61.8814C30.0221 62.1158 29.7065 62.2439 29.3752 62.2439H28.1252C27.4377 62.2471 26.8752 61.6877 26.8752 61.0002V58.5127C26.8752 57.822 27.4377 57.2658 28.1252 57.2658H29.3752C30.0627 57.2658 30.6252 57.822 30.6252 58.5127L30.6252 61.0002ZM35.6252 56.6437C35.6284 55.9562 36.1877 55.3999 36.8752 55.3999C37.5627 55.3999 38.1252 55.9562 38.1252 56.6437V62.8655C38.1252 63.5561 37.5659 64.1155 36.8752 64.1155C36.1846 64.1155 35.6252 63.5561 35.6252 62.8655V56.6437ZM45.6248 54.7783H44.3748C42.3092 54.7752 40.631 56.447 40.6248 58.5127V61.0002C40.631 63.0658 42.3092 64.7346 44.3748 64.7346H45.6248C47.6904 64.7346 49.3685 63.0659 49.3748 61.0002V58.5127C49.3685 56.4471 47.6904 54.7752 45.6248 54.7783ZM46.8748 61.0002C46.8748 61.6877 46.3123 62.247 45.6248 62.2439H44.3748C43.6873 62.247 43.1248 61.6877 43.1248 61.0002V58.5126C43.1248 57.822 43.6873 57.2658 44.3748 57.2658H45.6248C46.3123 57.2658 46.8748 57.822 46.8748 58.5126V61.0002ZM53.1252 64.1155C52.4346 64.1155 51.8752 63.5561 51.8752 62.8655V56.6437C51.8752 55.9531 52.4346 55.3937 53.1252 55.3937C53.8159 55.3937 54.3752 55.9531 54.3752 56.6437V62.8655C54.3752 63.5561 53.8159 64.1155 53.1252 64.1155ZM56.8752 60.9999C56.8815 63.0655 58.5596 64.7343 60.6252 64.7343H61.8752C63.9408 64.7343 65.619 63.0656 65.6253 60.9999V58.5124C65.619 56.4468 63.9408 54.7748 61.8752 54.778H60.6252C58.5596 54.7748 56.8815 56.4467 56.8752 58.5124V60.9999ZM59.3752 58.5124C59.3752 57.8217 59.9377 57.2655 60.6252 57.2655H61.8752C62.5628 57.2655 63.1252 57.8217 63.1252 58.5124V60.9999C63.1252 61.6874 62.5628 62.2468 61.8752 62.2436H60.6252C59.9377 62.2468 59.3752 61.6874 59.3752 60.9999V58.5124ZM69.3748 64.1155C68.6841 64.1155 68.1248 63.5561 68.1248 62.8655V56.6437C68.1248 55.9531 68.6841 55.3937 69.3748 55.3937C70.0654 55.3937 70.6248 55.9531 70.6248 56.6437V62.8655C70.6248 63.5561 70.0654 64.1155 69.3748 64.1155Z" fill="url(#paint0_linear)"/>
<defs>
<linearGradient id="paint0_linear" x1="0" y1="4.99951" x2="69.3807" y2="84.2916" gradientUnits="userSpaceOnUse">
<stop stop-color="#34A23E"/>
<stop offset="1" stop-color="#2763AB"/>
</linearGradient>
</defs>
</svg>
