<svg width="9" height="24" viewBox="0 0 9 24" fill="none" xmlns="http://www.w3.org/2000/svg">
<path d="M3.0877 3.76114L1.69088 5.14239C1.30395 5.52501 0.677107 5.52501 0.290199 5.14239C-0.0967083 4.75977 -0.0967331 4.13992 0.290199 3.75732L3.79966 0.286966C4.18659 -0.0956552 4.81343 -0.0956552 5.20034 0.286966L8.7098 3.75732C9.09673 4.13994 9.09673 4.7598 8.7098 5.14239C8.32287 5.52499 7.69602 5.52501 7.30912 5.14239L5.91423 3.76114C5.8175 3.66548 5.66079 3.66548 5.56405 3.76114C5.51762 3.80705 5.49054 3.87019 5.49054 3.93523V20.0629C5.49054 20.1987 5.60082 20.3077 5.73817 20.3077C5.80395 20.3077 5.8678 20.2829 5.91423 20.2369L7.30912 18.8557C7.69605 18.475 8.32289 18.475 8.7098 18.8557V18.8576C9.09673 19.2383 9.09673 19.8601 8.7098 20.2427L5.20034 23.713C4.81341 24.0957 4.18657 24.0957 3.79966 23.713L0.290199 20.2427C-0.0967331 19.8601 -0.0967331 19.2383 0.290199 18.8576V18.8557C0.677132 18.475 1.30398 18.475 1.69088 18.8557L3.08577 20.2369C3.1825 20.3326 3.33921 20.3326 3.43595 20.2369C3.48238 20.191 3.50946 20.1279 3.50946 20.0629V3.93523C3.50946 3.7994 3.39918 3.69036 3.26183 3.69036C3.19605 3.69036 3.13414 3.71522 3.08771 3.76114H3.0877Z" fill="#999999"/>
</svg>
