<svg width="14" height="14" viewBox="0 0 14 14" fill="none" xmlns="http://www.w3.org/2000/svg">
<path d="M13.8142 4.05012C13.596 3.54474 12.9941 3.16079 12.4746 3.19744C11.9552 3.23409 11.3549 3.03063 11.0892 2.77739C10.8235 2.52416 10.6075 1.92472 10.6272 1.40239C10.6463 0.880058 10.245 0.294831 9.73108 0.0902805C9.21714 -0.11427 8.52331 0.0410563 8.18163 0.432117C7.84046 0.822637 7.26802 1.10977 6.90388 1.12072C6.53974 1.13166 5.96074 0.858733 5.60755 0.47807C5.2549 0.0973934 4.55397 -0.0387867 4.04873 0.179989C3.54353 0.398219 3.15698 1.0004 3.19361 1.51999C3.23024 2.03958 3.02685 2.64012 2.77371 2.90593C2.52056 3.17174 1.92133 3.38505 1.40191 3.3681C0.882508 3.35114 0.294742 3.7515 0.0902636 4.26563C-0.114215 4.77921 0.0410566 5.47382 0.431435 5.81561C0.822364 6.1569 1.10941 6.72954 1.12034 7.09217C1.13128 7.45479 0.860085 8.03565 0.477918 8.38896C0.0957363 8.74174 -0.0414878 9.44182 0.179941 9.94987C0.400824 10.458 1.00007 10.8419 1.51947 10.8053C2.03888 10.7686 2.63921 10.9721 2.90493 11.2253C3.17064 11.4786 3.38661 12.0753 3.36693 12.5976C3.34725 13.1199 3.74911 13.7052 4.26415 13.9097C4.77919 14.1143 5.47192 13.9589 5.81359 13.5679C6.15531 13.1774 6.72611 12.8902 7.09025 12.8848C7.45439 12.8793 8.03339 13.1495 8.38932 13.5301C8.74471 13.9108 9.44455 14.041 9.94968 13.8228C10.4548 13.6045 10.8414 13.0051 10.8048 12.4855C10.7682 11.9659 10.9716 11.3654 11.2247 11.0995C11.4778 10.8337 12.0754 10.621 12.5976 10.6418C13.1197 10.6626 13.7048 10.2594 13.9092 9.74423C14.1137 9.22901 13.9612 8.53604 13.5675 8.19144C13.1744 7.84688 12.8874 7.28133 12.8775 6.91325C12.8677 6.54516 13.1394 5.96977 13.5227 5.61645C13.9125 5.19367 14.0257 4.58438 13.8141 4.04995L13.8142 4.05012ZM8.07551 9.5025V9.50195C7.4123 9.7891 6.66212 9.80058 5.99027 9.53368C5.31886 9.26732 4.78032 8.74499 4.49388 8.08101C4.20738 7.41756 4.19645 6.66712 4.46326 5.99546C4.72952 5.32381 5.25222 4.78509 5.91599 4.49896C6.57919 4.21291 7.32938 4.20197 8.0008 4.46888C8.67221 4.73634 9.21021 5.2592 9.49622 5.92323C9.78217 6.58558 9.7931 7.33432 9.52793 8.00542C9.26221 8.67652 8.7417 9.2147 8.07954 9.50191L8.07551 9.5025Z" fill="#343434"/>
</svg>
