<svg width="124" height="18" viewBox="0 0 124 18" fill="none" xmlns="http://www.w3.org/2000/svg">
<g clip-path="url(#clip0)">
<path d="M67.606 3.87793C68.8049 3.87793 69.8366 4.30388 70.7149 5.18239C71.5932 6.0476 72.0393 7.12578 72.0393 8.43024C72.0393 9.77464 71.5932 10.8794 70.7009 11.7713C69.8226 12.6498 68.7492 13.089 67.4945 13.089C66.2258 13.089 65.1523 12.6631 64.288 11.7979C63.4236 10.9327 62.9915 9.81457 62.9915 8.45686C62.9915 7.04591 63.4933 5.91449 64.4971 5.02266C65.3615 4.26394 66.3931 3.87793 67.606 3.87793ZM67.4666 4.34381C66.644 4.34381 65.9888 4.63665 65.4869 5.22233C64.8596 5.95442 64.5529 7.01929 64.5529 8.43024C64.5529 9.86781 64.8735 10.9726 65.5148 11.7446C66.0167 12.3303 66.6719 12.6232 67.4805 12.6232C68.3449 12.6232 69.0559 12.3037 69.6275 11.6648C70.199 11.0125 70.4779 10.0009 70.4779 8.60328C70.4779 7.09916 70.1572 5.96773 69.5438 5.23564C69.0419 4.64996 68.3588 4.34381 67.4666 4.34381Z" fill="#787878"/>
<path d="M72.566 7.51262L74.4898 6.78053H74.7408V8.16486C75.0614 7.64573 75.396 7.27303 75.7167 7.06006C76.0373 6.84708 76.3858 6.75391 76.7344 6.75391C77.3617 6.75391 77.8915 6.98019 78.3097 7.44607C78.8116 8.01844 79.0765 8.76384 79.0765 9.68229C79.0765 10.7072 78.7698 11.5591 78.1424 12.238C77.6405 12.7837 76.9993 13.0632 76.2325 13.0632C75.8979 13.0632 75.6051 13.01 75.3542 12.9168C75.173 12.8636 74.9778 12.7305 74.7408 12.5308V14.3411C74.7408 14.7537 74.7687 15.0066 74.8244 15.1264C74.8802 15.2329 74.9638 15.3261 75.0893 15.3793C75.2287 15.4459 75.4657 15.4858 75.8003 15.4858V15.7254H72.5381V15.4858H72.7054C72.9563 15.4858 73.1654 15.4459 73.3467 15.3527C73.4303 15.2995 73.5 15.2196 73.5418 15.1131C73.5976 15.0066 73.6116 14.7404 73.6116 14.3012V8.68398C73.6116 8.29796 73.5976 8.04506 73.5558 7.93857C73.5279 7.8454 73.4721 7.76553 73.3885 7.71229C73.3048 7.65904 73.1933 7.63242 73.0678 7.63242C72.9563 7.63242 72.8169 7.65904 72.6496 7.7256L72.566 7.51262ZM74.7408 8.55087V10.7738C74.7408 11.253 74.7687 11.5724 74.8105 11.7189C74.8663 11.9718 75.0196 12.198 75.2706 12.3844C75.5215 12.5707 75.8282 12.6639 76.2046 12.6639C76.6647 12.6639 77.0271 12.5042 77.306 12.1581C77.6824 11.7189 77.8636 11.0932 77.8636 10.2946C77.8636 9.38945 77.6545 8.68398 77.2363 8.19148C76.9435 7.85871 76.595 7.68567 76.2046 7.68567C75.9815 7.68567 75.7724 7.73891 75.5494 7.8454C75.396 7.92526 75.1172 8.16486 74.7408 8.55087Z" fill="#787878"/>
<path d="M83.5185 12.025C82.8772 12.4909 82.4729 12.7704 82.3056 12.837C82.0686 12.9435 81.8037 12.9967 81.5249 12.9967C81.0927 12.9967 80.7442 12.8636 80.4654 12.5841C80.1865 12.2912 80.0471 11.9318 80.0471 11.4659C80.0471 11.1731 80.1168 10.9202 80.2423 10.7072C80.4375 10.4144 80.7581 10.1349 81.2182 9.88196C81.6782 9.61574 82.445 9.30959 83.5185 8.93689V8.69729C83.5185 8.0983 83.4209 7.69898 83.2118 7.47269C83.0166 7.25972 82.7378 7.13992 82.3614 7.13992C82.0686 7.13992 81.8455 7.21979 81.6782 7.36621C81.497 7.51262 81.4134 7.68567 81.4134 7.87202L81.4273 8.24472C81.4273 8.44438 81.3715 8.60412 81.2739 8.7106C81.1624 8.81709 81.023 8.87033 80.8557 8.87033C80.6884 8.87033 80.549 8.81709 80.4375 8.7106C80.3399 8.5908 80.2841 8.44438 80.2841 8.24472C80.2841 7.87202 80.4793 7.52594 80.8836 7.21979C81.2739 6.90033 81.8455 6.75391 82.5565 6.75391C83.1142 6.75391 83.5742 6.83377 83.9228 7.02012C84.1876 7.15323 84.3828 7.35289 84.5083 7.64573C84.5919 7.83209 84.6338 8.2181 84.6338 8.79047V10.8137C84.6338 11.3728 84.6477 11.7189 84.6756 11.852C84.6895 11.9851 84.7314 12.0649 84.7871 12.1049C84.8289 12.1581 84.8986 12.1714 84.9684 12.1714C85.0381 12.1714 85.0938 12.1581 85.1496 12.1315C85.2472 12.0782 85.4284 11.9185 85.7072 11.6523V12.025C85.1914 12.6639 84.7174 12.9967 84.2434 12.9967C84.0204 12.9967 83.8531 12.9168 83.7136 12.7704C83.5882 12.624 83.5185 12.3711 83.5185 12.025ZM83.5185 11.5991V9.3229C82.8354 9.58912 82.3892 9.77547 82.1801 9.88196C81.8316 10.0683 81.5667 10.268 81.4134 10.4809C81.26 10.6806 81.1903 10.9202 81.1903 11.1598C81.1903 11.4793 81.2879 11.7322 81.4831 11.9318C81.6782 12.1448 81.9013 12.2513 82.1522 12.2513C82.5008 12.2513 82.9469 12.025 83.5185 11.5991Z" fill="#787878"/>
<path d="M88.3213 3.64551V11.5388C88.3213 11.9115 88.3492 12.1511 88.4049 12.2842C88.4607 12.404 88.5443 12.4972 88.6698 12.5505C88.7813 12.617 89.0044 12.6436 89.3251 12.6436V12.8832H86.2719V12.6436C86.5647 12.6436 86.7599 12.617 86.8575 12.5638C86.969 12.5105 87.0387 12.4174 87.1084 12.2842C87.1642 12.1511 87.192 11.9115 87.192 11.5388V6.13464C87.192 5.45578 87.1781 5.04315 87.1502 4.89673C87.1084 4.737 87.0666 4.63051 86.9969 4.57727C86.9272 4.52402 86.8296 4.4974 86.718 4.4974C86.6065 4.4974 86.4532 4.52402 86.2719 4.59058L86.1604 4.36429L88.0146 3.64551H88.3213Z" fill="#787878"/>
<path d="M97.2686 7.99506L100.67 11.2163C101.228 11.762 101.702 12.1214 102.106 12.3078C102.497 12.5074 102.887 12.6139 103.277 12.6405V12.8801H98.8997V12.6405C99.1506 12.6405 99.3458 12.6006 99.4573 12.5074C99.5828 12.4276 99.6386 12.3344 99.6386 12.2279C99.6386 12.1214 99.6107 12.0282 99.5689 11.9484C99.527 11.8685 99.3876 11.7088 99.1506 11.4958L95.9581 8.47425V11.3228C95.9581 11.762 95.986 12.0549 96.0417 12.2013C96.0975 12.3078 96.1951 12.401 96.3345 12.4808C96.5297 12.5873 96.7388 12.6405 96.9479 12.6405H97.2686V12.8801H93.3372V12.6405H93.6578C94.0342 12.6405 94.313 12.5341 94.4943 12.3211C94.5919 12.188 94.6476 11.8552 94.6476 11.3228V5.62573C94.6476 5.18647 94.6197 4.88032 94.564 4.7339C94.5222 4.62742 94.4246 4.54755 94.2852 4.46768C94.09 4.3612 93.8809 4.30795 93.6578 4.30795H93.3372V4.06836H97.2686V4.30795H96.9479C96.7388 4.30795 96.5297 4.3612 96.3345 4.45437C96.1951 4.52093 96.0975 4.62741 96.0417 4.77383C95.986 4.90694 95.9581 5.19978 95.9581 5.62573V8.32783C96.0557 8.24797 96.3624 7.96844 96.8922 7.50256C98.2445 6.31789 99.053 5.53255 99.3319 5.13323C99.4573 4.96019 99.5131 4.81377 99.5131 4.68066C99.5131 4.58748 99.4713 4.49431 99.3737 4.42775C99.2761 4.34789 99.1227 4.30795 98.8997 4.30795H98.6766V4.06836H102.078V4.30795C101.869 4.30795 101.688 4.33458 101.521 4.38782C101.367 4.42775 101.158 4.52093 100.935 4.66735C100.698 4.80046 100.405 5.01343 100.057 5.31958C99.9592 5.41275 99.4992 5.85201 98.6766 6.65066L97.2686 7.99506Z" fill="#787878"/>
<path d="M104.643 9.17648C104.643 10.0683 104.866 10.7605 105.326 11.253C105.773 11.7588 106.316 12.0117 106.93 12.0117C107.334 12.0117 107.683 11.9052 107.989 11.6922C108.296 11.4793 108.547 11.1066 108.742 10.5874L108.965 10.7205C108.868 11.3195 108.589 11.852 108.129 12.3445C107.669 12.8237 107.097 13.0766 106.4 13.0766C105.661 13.0766 105.02 12.797 104.476 12.238C103.946 11.6789 103.681 10.9335 103.681 9.98844C103.681 8.97682 103.96 8.17817 104.504 7.6058C105.048 7.03343 105.731 6.75391 106.567 6.75391C107.264 6.75391 107.836 6.98019 108.282 7.41945C108.728 7.85871 108.965 8.44438 108.965 9.17648H104.643ZM104.643 8.80378H107.529C107.515 8.41776 107.459 8.15155 107.39 7.99181C107.278 7.75222 107.111 7.56587 106.888 7.41945C106.665 7.28634 106.428 7.21979 106.177 7.21979C105.8 7.21979 105.466 7.35289 105.173 7.63242C104.866 7.91195 104.699 8.29796 104.643 8.80378Z" fill="#787878"/>
<path d="M111.933 3.64551V11.5388C111.933 11.9115 111.961 12.1511 112.017 12.2842C112.073 12.404 112.156 12.4972 112.282 12.5505C112.393 12.617 112.616 12.6436 112.937 12.6436V12.8832H109.884V12.6436C110.177 12.6436 110.372 12.617 110.47 12.5638C110.581 12.5105 110.651 12.4174 110.72 12.2842C110.776 12.1511 110.804 11.9115 110.804 11.5388V6.13464C110.804 5.45578 110.79 5.04315 110.762 4.89673C110.72 4.737 110.679 4.63051 110.609 4.57727C110.539 4.52402 110.442 4.4974 110.33 4.4974C110.219 4.4974 110.065 4.52402 109.884 4.59058L109.772 4.36429L111.627 3.64551H111.933Z" fill="#787878"/>
<path d="M115.81 3.64551V11.5388C115.81 11.9115 115.838 12.1511 115.893 12.2842C115.949 12.404 116.033 12.4972 116.158 12.5505C116.27 12.617 116.493 12.6436 116.814 12.6436V12.8832H113.76V12.6436C114.053 12.6436 114.248 12.617 114.346 12.5638C114.458 12.5105 114.527 12.4174 114.597 12.2842C114.653 12.1511 114.681 11.9115 114.681 11.5388V6.13464C114.681 5.45578 114.667 5.04315 114.639 4.89673C114.597 4.737 114.555 4.63051 114.485 4.57727C114.416 4.52402 114.318 4.4974 114.207 4.4974C114.095 4.4974 113.942 4.52402 113.76 4.59058L113.649 4.36429L115.503 3.64551H115.81Z" fill="#787878"/>
<path d="M117.193 6.94434H120.093V7.18393H119.953C119.744 7.18393 119.591 7.22386 119.493 7.30373C119.396 7.3969 119.34 7.50339 119.34 7.62319C119.34 7.79623 119.423 8.02251 119.563 8.32866L121.082 11.3236L122.477 8.03583C122.56 7.86278 122.602 7.68974 122.602 7.5167C122.602 7.43684 122.574 7.37028 122.546 7.34366C122.518 7.29042 122.449 7.25049 122.379 7.22386C122.295 7.19724 122.17 7.18393 121.975 7.18393V6.94434H123.996V7.18393C123.829 7.19724 123.703 7.23717 123.606 7.29042C123.522 7.34366 123.425 7.43684 123.313 7.58326C123.271 7.6365 123.188 7.80954 123.076 8.07576L120.539 14.0124C120.302 14.5981 119.967 15.024 119.577 15.3302C119.186 15.623 118.796 15.7694 118.434 15.7694C118.169 15.7694 117.946 15.6896 117.764 15.5431C117.597 15.3967 117.514 15.2237 117.514 15.0373C117.514 14.851 117.569 14.7046 117.695 14.5981C117.82 14.4916 117.988 14.4383 118.211 14.4383C118.364 14.4383 118.559 14.4783 118.824 14.5715C119.005 14.638 119.117 14.6779 119.159 14.6779C119.298 14.6779 119.451 14.6114 119.605 14.4783C119.772 14.3452 119.939 14.079 120.093 13.6929L120.539 12.6547L118.294 8.16893C118.238 8.03583 118.127 7.86278 117.974 7.66312C117.862 7.5167 117.764 7.41022 117.695 7.35697C117.597 7.29042 117.416 7.23717 117.193 7.18393V6.94434Z" fill="#787878"/>
</g>
<path d="M30 9.00166C30 8.60779 30.3344 8.28848 30.7469 8.28848C31.1595 8.28848 31.4939 8.60779 31.4939 9.00166C31.4939 9.39554 31.1595 9.71484 30.7469 9.71484C30.3344 9.71484 30 9.39554 30 9.00166Z" fill="url(#paint0_radial)"/>
<path d="M31.263 6.45368C31.263 5.90223 31.7312 5.4552 32.3087 5.4552C32.8863 5.4552 33.3545 5.90223 33.3545 6.45368C33.3545 7.00512 32.8863 7.45215 32.3087 7.45215C31.7312 7.45215 31.263 7.00512 31.263 6.45368Z" fill="url(#paint1_radial)"/>
<path d="M33.0133 3.6303C33.0133 2.92129 33.6153 2.34653 34.3578 2.34653C35.1004 2.34653 35.7024 2.92129 35.7024 3.6303C35.7024 4.3393 35.1004 4.91406 34.3578 4.91406C33.6153 4.91406 33.0133 4.3393 33.0133 3.6303Z" fill="url(#paint2_radial)"/>
<path d="M36.0928 1.56869C36.0928 0.702147 36.8285 -0.000321388 37.7361 -0.000321388C38.6437 -0.000321388 39.3794 0.702147 39.3794 1.56869C39.3794 2.43523 38.6437 3.1377 37.7361 3.1377C36.8285 3.1377 36.0928 2.43523 36.0928 1.56869Z" fill="url(#paint3_radial)"/>
<path d="M39.7691 3.60979C39.7691 2.90078 40.3711 2.32602 41.1137 2.32602C41.8563 2.32602 42.4583 2.90078 42.4583 3.60979C42.4583 4.31879 41.8563 4.89355 41.1137 4.89355C40.3711 4.89355 39.7691 4.31879 39.7691 3.60979Z" fill="url(#paint4_radial)"/>
<path d="M42.1165 6.45368C42.1165 5.90223 42.5847 5.4552 43.1623 5.4552C43.7398 5.4552 44.208 5.90223 44.208 6.45368C44.208 7.00512 43.7398 7.45215 43.1623 7.45215C42.5847 7.45215 42.1165 7.00512 42.1165 6.45368Z" fill="url(#paint5_radial)"/>
<path d="M43.9768 8.98116C43.9768 8.58728 44.3112 8.26798 44.7237 8.26798C45.1363 8.26798 45.4707 8.58728 45.4707 8.98116C45.4707 9.37503 45.1363 9.69434 44.7237 9.69434C44.3112 9.69434 43.9768 9.37503 43.9768 8.98116Z" fill="url(#paint6_radial)"/>
<path d="M59.413 8.96909C59.413 9.363 59.0785 9.68233 58.666 9.68233C58.2534 9.68233 57.9189 9.363 57.9189 8.96909C57.9189 8.57519 58.2534 8.25586 58.666 8.25586C59.0785 8.25586 59.413 8.57519 59.413 8.96909Z" fill="url(#paint7_radial)"/>
<path d="M58.1721 11.517C58.1721 12.0685 57.7039 12.5155 57.1263 12.5155C56.5488 12.5155 56.0806 12.0685 56.0806 11.517C56.0806 10.9656 56.5488 10.5186 57.1263 10.5186C57.7039 10.5186 58.1721 10.9656 58.1721 11.517Z" fill="url(#paint8_radial)"/>
<path d="M56.4217 14.3618C56.4217 15.0708 55.8197 15.6456 55.0772 15.6456C54.3346 15.6456 53.7327 15.0708 53.7327 14.3618C53.7327 13.6529 54.3346 13.0781 55.0772 13.0781C55.8197 13.0781 56.4217 13.6529 56.4217 14.3618Z" fill="url(#paint9_radial)"/>
<path d="M53.3424 16.4021C53.3424 17.2686 52.6066 17.9711 51.699 17.9711C50.7914 17.9711 50.0557 17.2686 50.0557 16.4021C50.0557 15.5355 50.7914 14.833 51.699 14.833C52.6066 14.833 53.3424 15.5355 53.3424 16.4021Z" fill="url(#paint10_radial)"/>
<path d="M49.6659 14.3619C49.6659 15.0709 49.0639 15.6457 48.3214 15.6457C47.5788 15.6457 46.9768 15.0709 46.9768 14.3619C46.9768 13.6529 47.5788 13.0781 48.3214 13.0781C49.0639 13.0781 49.6659 13.6529 49.6659 14.3619Z" fill="url(#paint11_radial)"/>
<path d="M47.3184 11.5385C47.3184 12.0899 46.8503 12.5369 46.2727 12.5369C45.6952 12.5369 45.2271 12.0899 45.2271 11.5385C45.2271 10.987 45.6952 10.54 46.2727 10.54C46.8503 10.54 47.3184 10.987 47.3184 11.5385Z" fill="url(#paint12_radial)"/>
<path d="M0.177734 5.43359H2.59766C3.73438 5.43359 4.55664 5.60352 5.06445 5.94336C5.57227 6.2832 5.82617 6.82031 5.82617 7.55469C5.82617 8.0625 5.68359 8.48242 5.39844 8.81445C5.11719 9.14258 4.70508 9.35547 4.16211 9.45312V9.51172C5.46289 9.73438 6.11328 10.418 6.11328 11.5625C6.11328 12.3281 5.85352 12.9258 5.33398 13.3555C4.81836 13.7852 4.0957 14 3.16602 14H0.177734V5.43359ZM1.17383 9.10156H2.81445C3.51758 9.10156 4.02344 8.99219 4.33203 8.77344C4.64062 8.55078 4.79492 8.17773 4.79492 7.6543C4.79492 7.17383 4.62305 6.82812 4.2793 6.61719C3.93555 6.40234 3.38867 6.29492 2.63867 6.29492H1.17383V9.10156ZM1.17383 9.94531V13.1504H2.96094C3.65234 13.1504 4.17188 13.0176 4.51953 12.752C4.87109 12.4824 5.04688 12.0625 5.04688 11.4922C5.04688 10.9609 4.86719 10.5703 4.50781 10.3203C4.15234 10.0703 3.60938 9.94531 2.87891 9.94531H1.17383Z" fill="#999999"/>
<path d="M6.79297 7.57812H7.83594L9.24219 11.2402C9.55078 12.0762 9.74219 12.6797 9.81641 13.0508H9.86328C9.91406 12.8516 10.0195 12.5117 10.1797 12.0312C10.3438 11.5469 10.875 10.0625 11.7734 7.57812H12.8164L10.0566 14.8906C9.7832 15.6133 9.46289 16.125 9.0957 16.4258C8.73242 16.7305 8.28516 16.8828 7.75391 16.8828C7.45703 16.8828 7.16406 16.8496 6.875 16.7832V16.0039C7.08984 16.0508 7.33008 16.0742 7.5957 16.0742C8.26367 16.0742 8.74023 15.6992 9.02539 14.9492L9.38281 14.0352L6.79297 7.57812Z" fill="#999999"/>
<defs>
<radialGradient id="paint0_radial" cx="0" cy="0" r="1" gradientUnits="userSpaceOnUse" gradientTransform="translate(30.7469 9.00161) scale(0.746953 0.71318)">
<stop stop-color="#33A23D"/>
<stop offset="0.01" stop-color="#33A23D"/>
<stop offset="0.78" stop-color="#A5D6A9"/>
<stop offset="1" stop-color="white"/>
</radialGradient>
<radialGradient id="paint1_radial" cx="0" cy="0" r="1" gradientUnits="userSpaceOnUse" gradientTransform="translate(32.3087 6.45368) scale(1.04575 0.998472)">
<stop stop-color="#33A23D"/>
<stop offset="0.01" stop-color="#33A23D"/>
<stop offset="0.78" stop-color="#A5D6A9"/>
<stop offset="1" stop-color="white"/>
</radialGradient>
<radialGradient id="paint2_radial" cx="0" cy="0" r="1" gradientUnits="userSpaceOnUse" gradientTransform="translate(34.3578 3.63029) scale(1.34456 1.28377)">
<stop stop-color="#33A23D"/>
<stop offset="0.01" stop-color="#33A23D"/>
<stop offset="0.78" stop-color="#A5D6A9"/>
<stop offset="1" stop-color="white"/>
</radialGradient>
<radialGradient id="paint3_radial" cx="0" cy="0" r="1" gradientUnits="userSpaceOnUse" gradientTransform="translate(37.7361 1.56874) scale(1.64331 1.56901)">
<stop stop-color="#33A23D"/>
<stop offset="0.01" stop-color="#33A23D"/>
<stop offset="0.78" stop-color="#A5D6A9"/>
<stop offset="1" stop-color="white"/>
</radialGradient>
<radialGradient id="paint4_radial" cx="0" cy="0" r="1" gradientUnits="userSpaceOnUse" gradientTransform="translate(41.1137 3.60979) scale(1.34456 1.28377)">
<stop stop-color="#33A23D"/>
<stop offset="0.01" stop-color="#33A23D"/>
<stop offset="0.78" stop-color="#A5D6A9"/>
<stop offset="1" stop-color="white"/>
</radialGradient>
<radialGradient id="paint5_radial" cx="0" cy="0" r="1" gradientUnits="userSpaceOnUse" gradientTransform="translate(43.1624 6.45378) scale(1.04575 0.998473)">
<stop stop-color="#33A23D"/>
<stop offset="0.01" stop-color="#33A23D"/>
<stop offset="0.78" stop-color="#A5D6A9"/>
<stop offset="1" stop-color="white"/>
</radialGradient>
<radialGradient id="paint6_radial" cx="0" cy="0" r="1" gradientUnits="userSpaceOnUse" gradientTransform="translate(44.7237 8.9811) scale(0.746956 0.71318)">
<stop stop-color="#2461AA"/>
<stop offset="0.01" stop-color="#2461AA"/>
<stop offset="0.84" stop-color="#BACDE4"/>
<stop offset="1" stop-color="white"/>
</radialGradient>
<radialGradient id="paint7_radial" cx="0" cy="0" r="1" gradientUnits="userSpaceOnUse" gradientTransform="translate(58.6659 8.96915) scale(0.747009 0.713235)">
<stop stop-color="#2461AA"/>
<stop offset="0.01" stop-color="#2461AA"/>
<stop offset="0.84" stop-color="#BACDE4"/>
<stop offset="1" stop-color="white"/>
</radialGradient>
<radialGradient id="paint8_radial" cx="0" cy="0" r="1" gradientUnits="userSpaceOnUse" gradientTransform="translate(57.1264 11.5169) scale(1.04576 0.998472)">
<stop stop-color="#2461AA"/>
<stop offset="0.01" stop-color="#2461AA"/>
<stop offset="0.84" stop-color="#BACDE4"/>
<stop offset="1" stop-color="white"/>
</radialGradient>
<radialGradient id="paint9_radial" cx="0" cy="0" r="1" gradientUnits="userSpaceOnUse" gradientTransform="translate(55.0772 14.3618) scale(1.3445 1.28371)">
<stop stop-color="#2461AA"/>
<stop offset="0.01" stop-color="#2461AA"/>
<stop offset="0.84" stop-color="#BACDE4"/>
<stop offset="1" stop-color="white"/>
</radialGradient>
<radialGradient id="paint10_radial" cx="0" cy="0" r="1" gradientUnits="userSpaceOnUse" gradientTransform="translate(51.699 16.4021) scale(1.64336 1.56906)">
<stop stop-color="#2461AA"/>
<stop offset="0.01" stop-color="#2461AA"/>
<stop offset="0.84" stop-color="#BACDE4"/>
<stop offset="1" stop-color="white"/>
</radialGradient>
<radialGradient id="paint11_radial" cx="0" cy="0" r="1" gradientUnits="userSpaceOnUse" gradientTransform="translate(48.3214 14.3619) scale(1.34456 1.28377)">
<stop stop-color="#2461AA"/>
<stop offset="0.01" stop-color="#2461AA"/>
<stop offset="0.84" stop-color="#BACDE4"/>
<stop offset="1" stop-color="white"/>
</radialGradient>
<radialGradient id="paint12_radial" cx="0" cy="0" r="1" gradientUnits="userSpaceOnUse" gradientTransform="translate(46.2728 11.5384) scale(1.0457 0.998421)">
<stop stop-color="#2461AA"/>
<stop offset="0.01" stop-color="#2461AA"/>
<stop offset="0.84" stop-color="#BACDE4"/>
<stop offset="1" stop-color="white"/>
</radialGradient>
<clipPath id="clip0">
<path d="M62.9915 3.64551H123.996V15.7698H62.9915V3.64551Z" fill="white"/>
</clipPath>
</defs>
</svg>
