<svg width="218" height="218" viewBox="-9 0 218 218" fill="none" xmlns="http://www.w3.org/2000/svg">
<g clip-path="url(#clip0_6697_2153)">
<path d="M163.88 95.81H80.52C91.4 87.79 97.8 75.25 97.8 61.67C97.8 58.84 97.5 55.96 96.9 53.08H163.88C173.91 53.08 183.44 48.9 190.29 41.55C191.18 43.95 191.64 46.41 191.64 48.9V68.06C191.64 83.36 179.19 95.81 163.89 95.81H163.88ZM59.47 91.1C64.42 90.4 69.11 88.45 73.12 85.43L76.27 88.58C71.39 92.4 65.62 94.79 59.47 95.54V91.1ZM28.35 40.65L31.54 43.84C28.52 47.86 26.57 52.55 25.87 57.49H21.41C22.16 51.32 24.54 45.54 28.35 40.65ZM89.17 57.49H84.67C84.45 55.96 84.11 54.43 83.64 52.92C85.07 53.03 86.4 53.09 87.69 53.09H88.33C88.72 54.57 89 56.04 89.18 57.5L89.17 57.49ZM89.16 65.86C88.41 72.01 86.01 77.78 82.19 82.66L79.04 79.51C82.07 75.49 84.02 70.8 84.72 65.86H89.16ZM37.46 37.93L34.26 34.74C36.72 32.83 39.44 31.26 42.38 30.07C43.27 31.26 44.24 32.45 45.32 33.68C42.5 34.69 39.86 36.11 37.45 37.93H37.46ZM103.76 8.37H182.99C187.81 8.37 191.66 12.32 191.63 17.14C191.53 32.36 179.12 44.71 163.88 44.71H87.68C65.83 44.71 46.48 29.5 41.2 8.36H58.12C60.5 8.36 62.43 6.43 62.43 4.05C62.43 1.82 60.61 0 58.37 0H29.74C13.31 0 0 13.31 0 29.73V36.12C0 45.01 5.1 53.13 13.06 57.03C12.87 58.72 12.78 60.24 12.78 61.67C12.78 85.11 31.85 104.18 55.29 104.18H163.88C183.83 104.18 200 88.01 200 68.06V48.9C200 43.66 198.55 38.47 195.8 33.83C198.59 28.56 200.04 22.63 199.99 16.66C199.92 7.41 192.29 0 183.04 0H103.88C101.53 0 99.62 1.91 99.64 4.27C99.65 6.54 101.5 8.37 103.77 8.37H103.76ZM32.62 8.37C33.67 13.35 35.45 18.22 37.91 22.88C26.9 27.78 18.6 37 14.89 48.45C10.84 45.69 8.37 41.07 8.37 36.12V29.73C8.37 17.95 17.96 8.36 29.74 8.36H32.62V8.37ZM25.86 65.86C26.56 70.81 28.51 75.5 31.53 79.51L28.38 82.66C24.56 77.78 22.17 72.01 21.41 65.86H25.85H25.86ZM34.3 88.58L37.45 85.43C41.47 88.45 46.15 90.4 51.1 91.1V95.54C44.95 94.79 39.19 92.4 34.3 88.58ZM52.4 40.53C58.67 45.59 66.09 49.31 73.9 51.31C75.7 54.53 76.65 58.1 76.65 61.68C76.65 73.46 67.07 83.05 55.28 83.05C43.49 83.05 33.91 73.47 33.91 61.68C33.91 50.98 41.83 41.96 52.39 40.53H52.4Z" fill="#343434"/>
<path d="M173.47 12.7803H141.53C137.46 12.7803 134.15 16.0903 134.15 20.1603V26.5503C134.15 30.6203 137.46 33.9303 141.53 33.9303H173.47C177.54 33.9303 180.85 30.6203 180.85 26.5503V20.1603C180.85 16.0903 177.54 12.7803 173.47 12.7803ZM172.48 25.5503H142.52V21.1403H157.5H172.48V25.5503Z" fill="#343434"/>
<path d="M166.989 57C173.613 57 179 62.3215 179 68.8643V79.1357C179 85.6785 173.613 91 166.989 91H115.011C108.387 91 103 85.6785 103 79.1357V68.8643C103 62.3215 108.387 57 115.011 57H166.989ZM161.275 63C159.697 63 158.303 63.2325 157.093 63.6973C155.892 64.162 154.953 64.8596 154.275 65.7891C153.607 66.7088 153.274 67.8509 153.273 69.2158C153.273 70.126 153.395 70.9159 153.637 71.584C153.879 72.2517 154.222 72.8375 154.667 73.3408C155.122 73.8346 155.665 74.2758 156.294 74.6631C156.933 75.0503 157.645 75.428 158.429 75.7959C159.349 76.2123 160.09 76.561 160.651 76.8418C161.213 77.1224 161.619 77.393 161.871 77.6543C162.132 77.906 162.264 78.2161 162.264 78.584C162.264 78.8938 162.176 79.17 162.002 79.4121C161.828 79.6445 161.556 79.8283 161.188 79.9639C160.83 80.0994 160.365 80.167 159.794 80.167C158.845 80.1669 157.785 80.0169 156.613 79.7168C155.442 79.407 154.28 78.9617 153.128 78.3809V83.4932C153.806 83.8127 154.459 84.074 155.089 84.2773C155.718 84.471 156.396 84.6121 157.122 84.6992C157.858 84.7864 158.71 84.8291 159.679 84.8291C161.615 84.829 163.193 84.5101 164.413 83.8711C165.643 83.2321 166.548 82.3993 167.129 81.373C167.71 80.3371 168 79.2429 168 78.0908C168 76.9871 167.807 76.0619 167.42 75.3164C167.042 74.5612 166.49 73.9173 165.764 73.3848C165.037 72.8425 164.156 72.3388 163.12 71.874C162.075 71.3899 161.247 70.9974 160.637 70.6973C160.037 70.3875 159.605 70.1022 159.344 69.8408C159.092 69.5795 158.967 69.2841 158.967 68.9551C158.967 68.6937 159.039 68.4611 159.185 68.2578C159.339 68.0545 159.572 67.8945 159.882 67.7783C160.201 67.6525 160.608 67.5898 161.102 67.5898C161.857 67.5898 162.675 67.7151 163.556 67.9668C164.437 68.2089 165.333 68.5387 166.243 68.9551L168 64.5254C167.119 64.1285 166.122 63.7746 165.009 63.4648C163.905 63.155 162.66 63 161.275 63ZM114 63.3057V84.54H119.766V75.8838H126.433V84.54H132.198V63.3057H126.433V71.1777H119.766V63.3057H114ZM136.803 63.3057V84.54H150.717V79.9062H142.54V63.3057H136.803Z" fill="#44BD84"/>
<path d="M133.25 96.1797H85.3499V104.18V120.18H77.3499C70.7499 120.18 65.3499 125.58 65.3499 132.18C65.3499 138.38 70.0699 143.42 76.1099 144.06L57.5099 211.1C57.1499 212.3 57.3899 213.62 58.1499 214.58C58.9099 215.58 60.1099 216.18 61.3499 216.18H77.3499C79.1499 216.18 80.7099 214.98 81.1899 213.26L97.3499 155.14V212.18C97.3499 214.38 99.1499 216.18 101.35 216.18H117.35C119.55 216.18 121.35 214.38 121.35 212.18V155.14L137.51 213.26C137.99 214.98 139.55 216.18 141.35 216.18H157.35C158.59 216.18 159.79 215.58 160.55 214.58C161.31 213.62 161.55 212.3 161.19 211.1L142.59 144.06C147.23 143.58 151.11 140.46 152.63 136.18H185.35C187.55 136.18 189.35 134.38 189.35 132.18C189.35 129.98 187.55 128.18 185.35 128.18H152.63C150.95 123.54 146.55 120.18 141.35 120.18H133.35V104.18L133.26 96.1797H133.25ZM93.3499 104.18H125.35V120.18H93.3499V104.18ZM74.3099 208.18H66.6299L84.3899 144.18H92.0699L74.3099 208.18ZM113.35 208.18H105.35V144.18H113.35V208.18ZM152.07 208.18H144.39L126.63 144.18H134.31L152.07 208.18ZM141.35 136.18H77.3499C75.1499 136.18 73.3499 134.38 73.3499 132.18C73.3499 129.98 75.1499 128.18 77.3499 128.18H141.35C143.55 128.18 145.35 129.98 145.35 132.18C145.35 134.38 143.55 136.18 141.35 136.18Z" fill="#343434"/>
<path d="M80.9102 8.04004C83.1193 8.04004 84.9102 6.24918 84.9102 4.04004C84.9102 1.8309 83.1193 0.0400391 80.9102 0.0400391C78.701 0.0400391 76.9102 1.8309 76.9102 4.04004C76.9102 6.24918 78.701 8.04004 80.9102 8.04004Z" fill="#343434"/>
<path d="M43 62C43 68.62 48.38 74 55 74C61.62 74 67 68.62 67 62C67 55.38 61.62 50 55 50C48.38 50 43 55.38 43 62ZM59 62C59 64.21 57.21 66 55 66C52.79 66 51 64.21 51 62C51 59.79 52.79 58 55 58C57.21 58 59 59.79 59 62Z" fill="#7565E2"/>
</g>
<defs>
<clipPath id="clip0_6697_2153">
<rect width="200" height="216.18" fill="white"/>
</clipPath>
</defs>
</svg>
