<svg width="453" height="304" viewBox="0 0 453 304" fill="none" xmlns="http://www.w3.org/2000/svg">
<defs>
<linearGradient id="paint0_linear_2905_3996" x1="28.5146" y1="137.714" x2="84.4424" y2="152.898" gradientUnits="userSpaceOnUse">
<stop stop-color="#7565E2"/>
<stop offset="0.891184" stop-color="#44BD84"/>
</linearGradient>
<linearGradient id="paint1_linear_2905_3996" x1="28.5146" y1="137.714" x2="84.4424" y2="152.898" gradientUnits="userSpaceOnUse">
<stop stop-color="#7565E2"/>
<stop offset="0.891184" stop-color="#44BD84"/>
</linearGradient>
<linearGradient id="paint2_linear_2905_3996" x1="28.5146" y1="137.714" x2="84.4424" y2="152.898" gradientUnits="userSpaceOnUse">
<stop stop-color="#7565E2"/>
<stop offset="0.891184" stop-color="#44BD84"/>
</linearGradient>
<linearGradient id="paint3_linear_2905_3996" x1="28.5146" y1="137.714" x2="84.4424" y2="152.898" gradientUnits="userSpaceOnUse">
<stop stop-color="#7565E2"/>
<stop offset="0.891184" stop-color="#44BD84"/>
</linearGradient>
<linearGradient id="paint4_linear_2905_3996" x1="28.5146" y1="137.714" x2="84.4424" y2="152.898" gradientUnits="userSpaceOnUse">
<stop stop-color="#7565E2"/>
<stop offset="0.891184" stop-color="#44BD84"/>
</linearGradient>
<linearGradient id="paint5_linear_2905_3996" x1="28.5146" y1="137.714" x2="84.4424" y2="152.898" gradientUnits="userSpaceOnUse">
<stop stop-color="#7565E2"/>
<stop offset="0.891184" stop-color="#44BD84"/>
</linearGradient>
<linearGradient id="paint6_linear_2905_3996" x1="28.5146" y1="137.714" x2="84.4424" y2="152.898" gradientUnits="userSpaceOnUse">
<stop stop-color="#7565E2"/>
<stop offset="0.891184" stop-color="#44BD84"/>
</linearGradient>
<linearGradient id="paint7_linear_2905_3996" x1="28.5146" y1="137.714" x2="84.4424" y2="152.898" gradientUnits="userSpaceOnUse">
<stop stop-color="#7565E2"/>
<stop offset="0.891184" stop-color="#44BD84"/>
</linearGradient>
</defs>
<path d="M93.3457 186.903C93.3457 171.417 103.724 160 119.904 160C136.253 160 146.549 171.417 146.549 186.903C146.549 202.471 136.602 214.15 119.904 214.15C103.293 214.15 93.3457 202.476 93.3457 186.903ZM136.684 186.816C136.684 176.868 130.801 168.91 119.904 168.91C109.093 168.91 103.123 176.868 103.123 186.816C103.123 197.713 108.919 205.24 119.904 205.24C130.889 205.24 136.684 197.718 136.684 186.816Z" fill="#343434"/>
<path d="M174.573 214.149C166.439 214.149 161.944 209.735 160.125 201.432H159.95V224.877H150.609V172.372H159.95V183.876H160.125C162.026 175.66 166.701 171.334 174.655 171.334C185.121 171.334 190.573 179.38 190.573 192.528C190.573 206.02 184.864 214.149 174.573 214.149ZM181.319 192.523C181.319 184.39 178.031 179.719 170.853 179.719C164.107 179.719 159.955 184.22 159.955 192.261V192.955C159.955 200.739 164.107 205.758 170.853 205.758C177.861 205.758 181.319 200.831 181.319 192.523Z" fill="#343434"/>
<path d="M220.068 202.818H219.893C217.992 210.084 213.06 213.891 206.052 213.891C198.525 213.891 193.248 210.084 193.248 202.3C193.248 194.86 197.744 189.496 207.953 189.496H220.063V187.852C220.063 182.313 217.813 179.287 212.192 179.287C207.177 179.287 204.32 181.537 203.37 187.42L194.461 186.208C195.673 177.124 201.037 171.503 212.541 171.503C224.307 171.503 229.322 177.386 229.322 187.764V213.023H220.068V202.818ZM220.068 197.716V196.417H209.34C204.844 196.417 202.419 198.061 202.419 200.83C202.419 203.687 204.238 206.281 209.515 206.281C215.917 206.276 220.068 202.644 220.068 197.716Z" fill="#343434"/>
<path d="M244.552 213.024H235.211V160H244.552V213.024Z" fill="#343434"/>
<path d="M274.393 192.523H273.612V213.023H263.752V161.125H273.612V184.482H274.393L295.844 161.125H307.348V161.299L281.828 187.94L308.298 212.854V213.028H296.275L274.393 192.523Z" fill="#343434"/>
<path d="M303.719 193.216C303.719 179.462 311.852 171.334 324.481 171.334C336.853 171.334 343.08 179.118 343.08 190.277C343.08 191.922 343.081 193.566 342.906 195.729H313.065C313.928 202.562 317.91 205.938 324.568 205.938C331.058 205.938 333.478 202.737 334.69 198.585L342.824 200.923C340.748 208.707 335.209 214.071 324.486 214.071C312.022 214.066 303.719 206.626 303.719 193.216ZM313.147 188.803H334.428C333.909 182.489 330.621 179.2 324.219 179.2C318.074 179.205 314.185 182.231 313.147 188.803Z" fill="#343434"/>
<path d="M356.573 213.024H347.232V160H356.573V213.024Z" fill="#343434"/>
<path d="M371.968 213.024H362.627V160H371.968V213.024Z" fill="#343434"/>
<path d="M374.562 227.647L375.857 218.912C377.676 219.257 379.315 219.519 381.046 219.519C385.717 219.519 388.054 218.481 390.649 212.341L374.213 172.378H384.422L389.699 187.083C391.343 191.753 393.593 197.893 395.494 203.432H395.756C397.657 197.723 399.733 191.928 401.207 187.257L405.965 172.378H416L399.306 213.466C395.155 223.675 390.135 228.171 380.794 228.171C378.195 228.166 376.468 227.904 374.562 227.647Z" fill="#343434"/>
<path d="M77.8327 165.789C77.8327 168.986 75.2411 171.577 72.0441 171.577C68.8471 171.577 66.2554 168.986 66.2554 165.789C66.2554 162.592 68.8471 160 72.0441 160C75.2411 160 77.8327 162.592 77.8327 165.789Z" fill="url(#paint0_linear_2905_3996)"/>
<path d="M42.3291 165.789C42.3291 168.986 39.7374 171.577 36.5405 171.577C33.3435 171.577 30.7518 168.986 30.7518 165.789C30.7518 162.592 33.3435 160 36.5405 160C39.7374 160 42.3291 162.592 42.3291 165.789Z" fill="url(#paint1_linear_2905_3996)"/>
<path d="M60.0809 183.54C60.0809 186.737 57.4892 189.329 54.2923 189.329C51.0953 189.329 48.5036 186.737 48.5036 183.54C48.5036 180.343 51.0953 177.752 54.2923 177.752C57.4892 177.752 60.0809 180.343 60.0809 183.54Z" fill="url(#paint2_linear_2905_3996)"/>
<path d="M24.5773 183.54C24.5773 186.737 21.9856 189.329 18.7886 189.329C15.5917 189.329 13 186.737 13 183.54C13 180.343 15.5917 177.752 18.7886 177.752C21.9856 177.752 24.5773 180.343 24.5773 183.54Z" fill="url(#paint3_linear_2905_3996)"/>
<path d="M77.8327 201.292C77.8327 204.489 75.2411 207.081 72.0441 207.081C68.8471 207.081 66.2554 204.489 66.2554 201.292C66.2554 198.095 68.8471 195.504 72.0441 195.504C75.2411 195.504 77.8327 198.095 77.8327 201.292Z" fill="url(#paint4_linear_2905_3996)"/>
<path d="M42.3291 201.292C42.3291 204.489 39.7374 207.081 36.5405 207.081C33.3435 207.081 30.7518 204.489 30.7518 201.292C30.7518 198.095 33.3435 195.504 36.5405 195.504C39.7374 195.504 42.3291 198.095 42.3291 201.292Z" fill="url(#paint5_linear_2905_3996)"/>
<path d="M60.0809 219.044C60.0809 222.241 57.4892 224.833 54.2923 224.833C51.0953 224.833 48.5036 222.241 48.5036 219.044C48.5036 215.847 51.0953 213.255 54.2923 213.255C57.4892 213.255 60.0809 215.847 60.0809 219.044Z" fill="url(#paint6_linear_2905_3996)"/>
<path d="M24.5773 219.044C24.5773 222.241 21.9856 224.833 18.7886 224.833C15.5917 224.833 13 222.241 13 219.044C13 215.847 15.5917 213.255 18.7886 213.255C21.9856 213.255 24.5773 215.847 24.5773 219.044Z" fill="url(#paint7_linear_2905_3996)"/>
<path d="M51.9453 75.8203C51.9453 81.3984 50.5469 85.7344 47.75 88.8281C44.9688 91.9219 41.0234 93.4688 35.9141 93.4688C30.7422 93.4688 26.7656 91.9375 23.9844 88.875C21.2188 85.7969 19.8359 81.4297 19.8359 75.7734C19.8359 70.1172 21.2266 65.7734 24.0078 62.7422C26.8047 59.7109 30.7891 58.1953 35.9609 58.1953C41.0547 58.1953 44.9922 59.7344 47.7734 62.8125C50.5547 65.8906 51.9453 70.2266 51.9453 75.8203ZM25.7891 75.8203C25.7891 80.0391 26.6406 83.2422 28.3438 85.4297C30.0469 87.6016 32.5703 88.6875 35.9141 88.6875C39.2422 88.6875 41.75 87.6094 43.4375 85.4531C45.1406 83.2969 45.9922 80.0859 45.9922 75.8203C45.9922 71.6172 45.1484 68.4297 43.4609 66.2578C41.7891 64.0859 39.2891 63 35.9609 63C32.6016 63 30.0625 64.0859 28.3438 66.2578C26.6406 68.4297 25.7891 71.6172 25.7891 75.8203ZM93.4609 93H86.9688L76.2109 77.4844L72.9062 80.1797V93H67.3047V58.7344H72.9062V75.0938C74.4375 73.2188 75.9609 71.4141 77.4766 69.6797L86.7344 58.7344H93.1094C87.125 65.7656 82.8359 70.7734 80.2422 73.7578L93.4609 93ZM141.055 63.0469C137.836 63.0469 135.305 64.1875 133.461 66.4688C131.617 68.75 130.695 71.8984 130.695 75.9141C130.695 80.1172 131.578 83.2969 133.344 85.4531C135.125 87.6094 137.695 88.6875 141.055 88.6875C142.508 88.6875 143.914 88.5469 145.273 88.2656C146.633 87.9688 148.047 87.5938 149.516 87.1406V91.9453C146.828 92.9609 143.781 93.4688 140.375 93.4688C135.359 93.4688 131.508 91.9531 128.82 88.9219C126.133 85.875 124.789 81.5234 124.789 75.8672C124.789 72.3047 125.438 69.1875 126.734 66.5156C128.047 63.8438 129.938 61.7969 132.406 60.375C134.875 58.9531 137.773 58.2422 141.102 58.2422C144.602 58.2422 147.836 58.9766 150.805 60.4453L148.789 65.1094C147.633 64.5625 146.406 64.0859 145.109 63.6797C143.828 63.2578 142.477 63.0469 141.055 63.0469ZM186.156 93L182.734 83.4844H169.633L166.281 93H160.375L173.195 58.5938H179.289L192.109 93H186.156ZM181.258 78.6562L178.047 69.3281C177.812 68.7031 177.484 67.7188 177.062 66.375C176.656 65.0312 176.375 64.0469 176.219 63.4219C175.797 65.3438 175.18 67.4453 174.367 69.7266L171.273 78.6562H181.258ZM219.445 93L209.508 64.3828H209.32C209.586 68.6328 209.719 72.6172 209.719 76.3359V93H204.633V58.7344H212.531L222.047 85.9922H222.188L231.984 58.7344H239.906V93H234.516V76.0547C234.516 74.3516 234.555 72.1328 234.633 69.3984C234.727 66.6641 234.805 65.0078 234.867 64.4297H234.68L224.391 93H219.445ZM276.312 93H256.93V58.7344H276.312V63.4688H262.531V72.7969H275.445V77.4844H262.531V88.2422H276.312V93ZM297.344 74.6719H301.234C303.844 74.6719 305.734 74.1875 306.906 73.2188C308.078 72.25 308.664 70.8125 308.664 68.9062C308.664 66.9688 308.031 65.5781 306.766 64.7344C305.5 63.8906 303.594 63.4688 301.047 63.4688H297.344V74.6719ZM297.344 79.3125V93H291.742V58.7344H301.422C305.844 58.7344 309.117 59.5625 311.242 61.2188C313.367 62.875 314.43 65.375 314.43 68.7188C314.43 72.9844 312.211 76.0234 307.773 77.8359L317.453 93H311.078L302.875 79.3125H297.344ZM351.703 93L348.281 83.4844H335.18L331.828 93H325.922L338.742 58.5938H344.836L357.656 93H351.703ZM346.805 78.6562L343.594 69.3281C343.359 68.7031 343.031 67.7188 342.609 66.375C342.203 65.0312 341.922 64.0469 341.766 63.4219C341.344 65.3438 340.727 67.4453 339.914 69.7266L336.82 78.6562H346.805Z" fill="black"/>
</svg>
