<svg width="200" height="200" viewBox="0 -16 200 200" fill="none" xmlns="http://www.w3.org/2000/svg">
<g clip-path="url(#clip0_6553_5660)">
<path d="M184 0H16C7.16 0 0 7.16 0 16V52C0 54.2 1.8 56 4 56C6.2 56 8 54.2 8 52V16C8 11.6 11.6 8 16 8H184C188.4 8 192 11.6 192 16V152C192 156.4 188.4 160 184 160H16C11.6 160 8 156.4 8 152V84C8 81.8 6.2 80 4 80C1.8 80 0 81.8 0 84V152C0 160.84 7.16 168 16 168H184C192.84 168 200 160.84 200 152V16C200 7.16 192.84 0 184 0Z" fill="#343434"/>
<path d="M96 144C104.84 144 112 136.84 112 128V40C112 31.16 104.84 24 96 24H32C23.16 24 16 31.16 16 40V128C16 136.84 23.16 144 32 144H96ZM24 128V40C24 35.6 27.6 32 32 32H96C100.4 32 104 35.6 104 40V128C104 132.4 100.4 136 96 136H32C27.6 136 24 132.4 24 128Z" fill="#343434"/>
<path d="M128 48H144C146.2 48 148 46.2 148 44V28C148 25.8 146.2 24 144 24H128C125.8 24 124 25.8 124 28V44C124 46.2 125.8 48 128 48ZM132 32H140V40H132V32Z" fill="#343434"/>
<path d="M160 48H176C178.2 48 180 46.2 180 44V28C180 25.8 178.2 24 176 24H160C157.8 24 156 25.8 156 28V44C156 46.2 157.8 48 160 48ZM164 32H172V40H164V32Z" fill="#343434"/>
<path d="M124 76C124 78.2 125.8 80 128 80H144C146.2 80 148 78.2 148 76V60C148 57.8 146.2 56 144 56H128C125.8 56 124 57.8 124 60V76ZM132 64H140V72H132V64Z" fill="#343434"/>
<path d="M156 76C156 78.2 157.8 80 160 80H176C178.2 80 180 78.2 180 76V60C180 57.8 178.2 56 176 56H160C157.8 56 156 57.8 156 60V76ZM164 64H172V72H164V64Z" fill="#343434"/>
<path d="M124 108C124 110.2 125.8 112 128 112H144C146.2 112 148 110.2 148 108V92C148 89.8 146.2 88 144 88H128C125.8 88 124 89.8 124 92V108ZM132 96H140V104H132V96Z" fill="#343434"/>
<path d="M156 108C156 110.2 157.8 112 160 112H176C178.2 112 180 110.2 180 108V92C180 89.8 178.2 88 176 88H160C157.8 88 156 89.8 156 92V108ZM164 96H172V104H164V96Z" fill="#343434"/>
<path d="M124 140C124 142.2 125.8 144 128 144H144C146.2 144 148 142.2 148 140V124C148 121.8 146.2 120 144 120H128C125.8 120 124 121.8 124 124V140ZM132 128H140V136H132V128Z" fill="#343434"/>
<path d="M156 140C156 142.2 157.8 144 160 144H176C178.2 144 180 142.2 180 140V124C180 121.8 178.2 120 176 120H160C157.8 120 156 121.8 156 124V140ZM164 128H172V136H164V128Z" fill="#343434"/>
<path d="M4 72C6.20914 72 8 70.2091 8 68C8 65.7909 6.20914 64 4 64C1.79086 64 0 65.7909 0 68C0 70.2091 1.79086 72 4 72Z" fill="#343434"/>
<path d="M96 75.9994H72C70.8 75.9994 69.64 75.4394 68.88 74.4794L56 58.3994L43.12 74.4794C42.36 75.4394 41.2 75.9994 40 75.9994H32C29.8 75.9994 28 74.1994 28 71.9994C28 69.7994 29.8 67.9994 32 67.9994H38.08L52.88 49.5194C54.4 47.6394 57.6 47.6394 59.12 49.5194L73.92 67.9994H96C98.2 67.9994 100 69.7994 100 71.9994C100 74.1994 98.2 75.9994 96 75.9994Z" fill="#44BD84"/>
<path d="M54.52 122.04C50.32 122.04 46.44 119.88 44.24 116.2L42.88 113.92C42.2 112.8 41.04 112.08 39.72 112H32C29.8 112 28 110.2 28 108C28 105.8 29.8 104 32 104H40.16C44.16 104.28 47.72 106.44 49.76 109.84L51.12 112.12C51.92 113.44 53.36 114.16 54.88 114.04C56.44 113.92 57.68 112.96 58.28 111.52C59.12 109.48 61.44 108.48 63.48 109.28C65.52 110.12 66.52 112.44 65.72 114.48C64 118.76 60.12 121.64 55.52 122C55.2 122 54.88 122 54.52 122V122.04Z" fill="#7565E2"/>
<path d="M96.0004 111.999H91.8404C88.1604 111.999 84.7604 110.359 82.4804 107.479L77.4404 101.199C76.1604 99.5585 74.4404 99.6385 73.7204 99.7585C73.0404 99.8785 71.3604 100.319 70.6004 102.239C69.7604 104.279 67.4404 105.279 65.4004 104.479C63.3604 103.639 62.3604 101.319 63.1604 99.2785C64.7604 95.2785 68.2804 92.4785 72.5604 91.8785C76.8404 91.2385 81.0004 92.8785 83.6804 96.2385L88.7204 102.519C89.4804 103.479 90.6404 104.039 91.8404 104.039H96.0004C98.2004 104.039 100 105.839 100 108.039C100 110.239 98.2004 112.039 96.0004 112.039V111.999Z" fill="#7565E2"/>
</g>
<defs>
<clipPath id="clip0_6553_5660">
<rect width="200" height="168" fill="white"/>
</clipPath>
</defs>
</svg>
