<svg width="200" height="200" viewBox="0 0 200 200" fill="none" xmlns="http://www.w3.org/2000/svg">
<g clip-path="url(#clip0_6703_2159)">
<path d="M4 69.5V20C4 11.1634 11.1634 4 20 4H180C188.837 4 196 11.1634 196 20V180C196 188.837 188.837 196 180 196H20C11.1634 196 4 188.837 4 180V104" stroke="#343434" stroke-width="8" stroke-linecap="round" stroke-linejoin="round"/>
<path d="M4 35H196" stroke="#343434" stroke-width="8"/>
<path d="M24 20H85" stroke="#44BD84" stroke-width="8" stroke-linecap="round"/>
<path d="M177 24C179.209 24 181 22.2091 181 20C181 17.7909 179.209 16 177 16C174.791 16 173 17.7909 173 20C173 22.2091 174.791 24 177 24Z" fill="#343434"/>
<path d="M159 24C161.209 24 163 22.2091 163 20C163 17.7909 161.209 16 159 16C156.791 16 155 17.7909 155 20C155 22.2091 156.791 24 159 24Z" fill="#343434"/>
<path d="M4 90C6.20914 90 8 88.2091 8 86C8 83.7909 6.20914 82 4 82C1.79086 82 0 83.7909 0 86C0 88.2091 1.79086 90 4 90Z" fill="#343434"/>
<path d="M61.5811 175V179C63.7902 179 65.5811 177.209 65.5811 175H61.5811ZM37 175H33C33 177.209 34.7909 179 37 179V175ZM37 121.655L34.1693 118.829C33.4205 119.579 33 120.596 33 121.655H37ZM61.5811 97.0342H65.5811C65.5811 95.4157 64.6058 93.9568 63.1103 93.338C61.6148 92.7193 59.8938 93.0627 58.7503 94.2081L61.5811 97.0342ZM164 80.6211V84.6211C166.209 84.6211 168 82.8302 168 80.6211H164ZM102.549 80.6211V76.6211C100.34 76.6211 98.5488 78.412 98.5488 80.6211H102.549ZM102.549 175V179C104.758 179 106.549 177.209 106.549 175H102.549ZM77.9678 175H73.9678C73.9678 177.209 75.7586 179 77.9678 179V175ZM77.9678 56V52C75.7586 52 73.9678 53.7909 73.9678 56H77.9678ZM164 56H168C168 53.7909 166.209 52 164 52V56ZM164 121.655V125.655C166.209 125.655 168 123.864 168 121.655H164ZM118.936 121.655H114.936C114.936 123.864 116.726 125.655 118.936 125.655V121.655ZM118.936 97.0342V93.0342C116.726 93.0342 114.936 94.825 114.936 97.0342H118.936ZM164 97.0342H168C168 94.825 166.209 93.0342 164 93.0342V97.0342ZM61.5811 175V171H37V175V179H61.5811V175ZM37 175H41V121.655H37H33V175H37ZM37 121.655L39.8307 124.481L64.4118 99.8603L61.5811 97.0342L58.7503 94.2081L34.1693 118.829L37 121.655ZM61.5811 97.0342H57.5811V175H61.5811H65.5811V97.0342H61.5811ZM164 80.6211V76.6211H102.549V80.6211V84.6211H164V80.6211ZM102.549 80.6211H98.5488V175H102.549H106.549V80.6211H102.549ZM102.549 175V171H77.9678V175V179H102.549V175ZM77.9678 175H81.9678V56H77.9678H73.9678V175H77.9678ZM77.9678 56V60H164V56V52H77.9678V56ZM164 56H160V80.6211H164H168V56H164ZM164 121.655V117.655H118.936V121.655V125.655H164V121.655ZM118.936 121.655H122.936V97.0342H118.936H114.936V121.655H118.936ZM118.936 97.0342V101.034H164V97.0342V93.0342H118.936V97.0342ZM164 97.0342H160V121.655H164H168V97.0342H164Z" fill="#7565E2"/>
</g>
<defs>
<clipPath id="clip0_6703_2159">
<rect width="200" height="200" fill="white"/>
</clipPath>
</defs>
</svg>
