<svg width="200" height="200" viewBox="0 -8 200 200" fill="none" xmlns="http://www.w3.org/2000/svg">
<g clip-path="url(#clip0_6580_4539)">
<path d="M140.22 32.05C115.87 32.05 94.22 46.63 85.05 69.18C84.22 71.23 85.1999 73.56 87.2499 74.39C89.2999 75.22 91.6299 74.24 92.4599 72.19C100.39 52.66 119.14 40.04 140.22 40.04C168.63 40.04 191.74 63.15 191.74 91.56C191.74 119.97 168.63 143.08 140.22 143.08C126.46 143.08 113.52 137.72 103.79 127.99C102.23 126.43 99.6899 126.43 98.1299 127.99C96.5699 129.55 96.5699 132.08 98.1299 133.65C109.37 144.89 124.32 151.08 140.22 151.08C173.04 151.08 199.74 124.38 199.74 91.56C199.74 58.74 173.04 32.04 140.22 32.04V32.05Z" fill="#7565E2"/>
<path d="M113.83 66.5402C120.77 59.2302 130.14 55.2002 140.22 55.2002C160.27 55.2002 176.59 71.5102 176.59 91.5702C176.59 111.63 160.28 127.94 140.22 127.94C125.82 127.94 112.76 119.43 106.94 106.25C106.05 104.23 103.68 103.32 101.66 104.21C99.64 105.1 98.72 107.46 99.62 109.49C106.72 125.56 122.66 135.94 140.22 135.94C164.68 135.94 184.59 116.04 184.59 91.5702C184.59 67.1002 164.69 47.2002 140.22 47.2002C127.93 47.2002 116.49 52.1102 108.03 61.0402C106.51 62.6402 106.58 65.1702 108.18 66.6902C109.78 68.2102 112.31 68.1402 113.83 66.5402Z" fill="#44BD84"/>
<path d="M140.22 118.73C155.2 118.73 167.38 106.55 167.38 91.57C167.38 76.59 155.2 64.41 140.22 64.41C126.6 64.41 115.3 74.48 113.36 87.57H78.4199L66.1799 3.41997C65.8899 1.40997 64.1199 -0.0300281 62.0899 -2.81369e-05C60.0499 0.0699719 58.3899 1.65997 58.2399 3.68997L54.8099 48.83C54.6399 51.03 56.2899 52.95 58.4899 53.12C60.6999 53.28 62.6099 51.64 62.7799 49.44L63.4699 40.35L71.0099 92.14C71.2999 94.11 72.9799 95.56 74.9699 95.56H113.37C115.31 108.65 126.62 118.72 140.23 118.72L140.22 118.73ZM140.22 72.41C150.78 72.41 159.38 81 159.38 91.57C159.38 102.14 150.79 110.73 140.22 110.73C129.65 110.73 121.06 102.14 121.06 91.57C121.06 81 129.65 72.41 140.22 72.41Z" fill="#343434"/>
<path d="M56.89 74.1995C54.67 74.0295 52.77 75.6795 52.6 77.8795L48.72 128.84L42.17 90.8895C41.84 88.9695 40.17 87.5695 38.23 87.5695H4C1.79 87.5695 0 89.3595 0 91.5695C0 93.7795 1.79 95.5695 4 95.5695H34.85L46.32 161.97C46.65 163.9 48.32 165.29 50.26 165.29C50.32 165.29 50.39 165.29 50.45 165.29C52.47 165.19 54.09 163.61 54.25 161.6L60.57 78.4995C60.74 76.2995 59.09 74.3795 56.89 74.2095V74.1995Z" fill="#343434"/>
<path d="M57.6797 67.7998C59.8888 67.7998 61.6797 66.0089 61.6797 63.7998C61.6797 61.5907 59.8888 59.7998 57.6797 59.7998C55.4705 59.7998 53.6797 61.5907 53.6797 63.7998C53.6797 66.0089 55.4705 67.7998 57.6797 67.7998Z" fill="#343434"/>
</g>
<defs>
<clipPath id="clip0_6580_4539">
<rect width="199.75" height="165.29" fill="white"/>
</clipPath>
</defs>
</svg>
